<svg width="1050" height="207" viewBox="0 0 1050 207" fill="none" xmlns="http://www.w3.org/2000/svg">
<path d="M1028.33 16.3599C1026.67 35.2479 1020.82 53.8079 1010.84 70.5319C1014.04 79.3652 1016.45 88.5146 1018.07 97.8839C1037.09 73.9652 1047.75 45.4519 1049.94 16.3599H1028.33Z" fill="white"/>
<path d="M938.718 -1.28484e-05L927.108 18.16C962.548 40.8653 986.056 80.5613 986.056 125.773H1007.61C1007.61 72.932 980.137 26.5373 938.718 -1.28484e-05Z" fill="white"/>
<path d="M1014.85 24.1447C1012.98 16.5607 1005.23 11.926 997.564 13.814C990 15.7674 985.37 23.5087 987.246 31.09C988.907 37.5154 994.748 41.822 1001.11 41.822C1002.23 41.822 1003.37 41.6887 1004.51 41.4074L1004.51 41.406C1008.21 40.49 1011.32 38.1714 1013.29 34.8794C1015.24 31.6047 1015.79 27.7847 1014.85 24.1447Z" fill="white"/>
<path d="M861.802 156.643L815.393 81.9976H793.661V204.394H817.786V134.064L840.187 169.175L861.83 204.604L878.881 176.495L905.846 134.064V204.394H929.943V81.9976H908.393L861.802 156.643Z" fill="white"/>
<path d="M743.467 204.223H768.303V81.8256H743.467V204.223Z" fill="white"/>
<path d="M620.764 104.293H661.52V204.223H686.356V104.293H727.088V81.8261H620.764V104.293Z" fill="white"/>
<path d="M565.488 141.738H533.316V104.292H565.488C578.81 104.292 586.121 111.96 586.121 122.939C586.121 134.248 578.81 141.738 565.488 141.738ZM565.488 81.8257H508.48V204.223H533.316V164.204H565.488C593.609 164.204 610.778 147.775 610.778 122.939C610.778 98.4337 593.609 81.8257 565.488 81.8257Z" fill="white"/>
<path d="M423.986 183.59C401.875 183.59 384.503 166.599 384.503 143.215C384.503 119.831 401.875 102.459 423.986 102.459C446.071 102.459 463.443 119.831 463.443 143.215C463.443 166.599 446.071 183.59 423.986 183.59ZM423.986 79.0751C387.814 79.0751 359.489 107.579 359.489 143.215C359.489 178.826 387.814 206.974 423.986 206.974C460.158 206.974 488.458 178.826 488.458 143.215C488.458 107.579 460.158 79.0751 423.986 79.0751Z" fill="white"/>
<path d="M247.74 104.293H288.496V204.223H313.332V104.293H354.064V81.8261H247.74V104.293Z" fill="white"/>
<path d="M165.972 153.99H228.457V131.88H165.972V104.293H233.755V81.8264H141.136V204.222H234.137V181.756H165.972V153.99Z" fill="white"/>
<path d="M64.7453 151.384L28.0973 82.0989H0L64.7453 204.503L129.489 82.0989H101.393L64.7453 151.384Z" fill="white"/>
</svg>
